<svg width="425" height="425" viewBox="0 0 425 425" fill="none" xmlns="http://www.w3.org/2000/svg">
    <path fill-rule="evenodd" clip-rule="evenodd"
        d="M290.365 375.229C230.76 403.835 163.281 396.902 111.903 362.853C107.647 360.032 110.295 353.756 115.376 354.262C157.541 358.469 197.43 352.756 235.374 331.195C241.772 327.561 248.073 323.497 254.286 318.989C255.508 318.102 257.059 317.797 258.525 318.161C283.797 324.44 311.311 327.408 340.918 327.173C345.218 327.139 347.628 332.111 344.702 335.263C329.694 351.43 311.457 365.106 290.365 375.229ZM303.778 403.177C210.904 447.75 101.709 418.655 42.3041 339.123C42.1603 338.93 41.9579 338.788 41.7278 338.718C41.6075 338.682 41.4872 338.646 41.3669 338.609C40.9746 338.491 40.7533 338.076 40.8723 337.684V337.684C40.94 337.461 40.8989 337.22 40.7618 337.031C33.2791 326.752 26.6196 315.651 20.9213 303.778C-29.7392 198.221 14.7631 71.5818 120.32 20.9213C225.877 -29.7392 352.516 14.7631 403.177 120.32C453.837 225.877 409.335 352.516 303.778 403.177ZM48.8692 290.365C52.2496 297.408 56.0262 304.133 60.1595 310.526C60.8132 311.537 61.8284 312.27 62.9893 312.589C119.838 328.201 167.212 329.9 210.057 309.465C213.79 307.684 213.577 302.418 209.865 300.597C193.948 292.789 179.243 283.231 165.806 271.882C120.438 233.566 91.4897 176.493 78.1465 102.663C77.394 98.4991 72.1861 97.014 69.578 100.346C28.4728 152.855 18.0625 226.175 48.8692 290.365ZM185.809 248.199C203.213 262.898 223.486 274.349 246.718 282.373C248.384 282.949 250.224 282.586 251.54 281.413C287.954 248.961 323.472 195.206 359.266 110.785C359.936 109.204 359.751 107.365 358.746 105.973C308.452 36.2478 213.96 10.3654 133.733 48.8692C124.052 53.5154 114.973 58.9101 106.531 64.9506C105.079 65.9895 104.322 67.7562 104.534 69.529C114.472 152.89 142.53 211.647 185.809 248.199ZM374.372 292.143C373.61 293.69 372.084 294.712 370.365 294.849C342.916 297.034 317.709 296.542 294.69 293.484C290.687 292.952 289.075 288.093 291.802 285.115C320.769 253.466 347.991 210.156 374.406 153.146C376.247 149.171 381.887 149.284 383.311 153.427C399.375 200.166 395.134 249.993 374.372 292.143ZM280.326 131.965C282.231 103.737 260.892 79.3079 232.663 77.4024C204.434 75.497 180.005 96.8363 178.1 125.065C176.194 153.294 197.534 177.723 225.762 179.628C253.991 181.534 278.42 160.194 280.326 131.965ZM311.255 134.053C314.314 88.7423 280.061 49.5313 234.75 46.4728C189.44 43.4143 150.229 77.6666 147.17 122.977C144.112 168.288 178.364 207.499 223.675 210.558C268.986 213.616 308.197 179.364 311.255 134.053Z"
        fill="white" />
</svg>